<?xml version="1.0" encoding="utf-8"?>
<svg id="master-artboard" viewBox="0 0 286 285.3999938964844" version="1.1" xmlns="http://www.w3.org/2000/svg" x="0px" y="0px" style="enable-background:new 0 0 401 285.4;" width="286px" height="285.3999938964844px"><defs><linearGradient id="gradient-0" gradientUnits="userSpaceOnUse" x1="200.5" y1="0" x2="200.5" y2="285.3999938964844">
                <stop offset="0" style="stop-color: #ffffff"/>
                <stop offset="1" style="stop-color: #cccccc"/>
              </linearGradient></defs><rect id="ee-background" x="0" y="0" width="286" height="285.3999938964844" style="fill: rgb(255, 255, 255); fill-opacity: 0; pointer-events: none;"/>





<path class="st0" d="M229.3,79.6c-1.1,0-2.4-1.2-2.9-2c-0.1-0.2-0.3-0.4-0.4-0.6c-0.7-1.1-1.4-2.1-2.7-2.8l-5.7-2.8&#10;&#9;&#9;&#9;c0.4-0.9,0.7-1.9,0.8-3c3.6,1.8,6.1,3,6.2,3.1c0.9,0.5,1.7,0.6,2.9,0.6c0.5,0,1,0,1.5-0.1c0.2,0,0.4,0,0.6,0&#10;&#9;&#9;&#9;c0.8,0,2.9,0.1,3.2,1.4c0.3,1.2-0.3,1.5-1,1.8c-0.5,0.2-0.9,0.4-1.2,0.9c-0.3,0.5-0.1,1,0,1.5c0.2,0.7,0.3,1.3-0.6,1.9&#10;&#9;&#9;&#9;C229.8,79.6,229.5,79.6,229.3,79.6L229.3,79.6z" style="fill: rgb(0, 0, 0);" transform="matrix(4.964418411254884, 0, 0, 4.31965446472168, -895.4347759884437, -111.42969670039435)"/><path class="st0" d="M187.9,79.6c-0.3,0-0.5-0.1-0.7-0.2c-0.9-0.5-0.7-1.2-0.6-1.9c0.1-0.5,0.3-1,0-1.5c-0.3-0.5-0.7-0.7-1.2-0.9&#10;&#9;&#9;&#9;c-0.7-0.3-1.3-0.6-1-1.8c0.3-1.3,2.4-1.4,3.2-1.4c0.2,0,0.4,0,0.6,0c0.5,0,1,0.1,1.5,0.1c1.1,0,2-0.2,2.9-0.6c0,0,6-3,6-3&#10;&#9;&#9;&#9;c0.2,1.2,0.4,2.1,0.8,3l-5.6,2.7c-1.3,0.7-2,1.7-2.7,2.8c-0.1,0.2-0.3,0.4-0.4,0.6C190.3,78.4,189.1,79.6,187.9,79.6z" style="fill: rgb(0, 0, 0);" transform="matrix(4.964418411254884, 0, 0, 4.31965446472168, -895.4347759884437, -111.42969670039435)"/><path class="st0" d="M208.5,75.6c-5.2,0-7.3-2.5-8-6.3c-0.1-0.7-0.2-1.3-0.2-2c-0.2-1.9,0.8-3.3,0.8-3c0,4.6,0.6,8.6,7.4,8.6&#10;&#9;&#9;&#9;c6.8,0,7.3-5.9,7.2-8.6c0-0.4,1.2,1.1,1,2.9c-0.1,0.6-0.1,1.2-0.2,1.9C216,73,213.8,75.6,208.5,75.6z" style="fill: rgb(0, 0, 0);" transform="matrix(4.964418411254884, 0, 0, 4.31965446472168, -895.4347759884437, -111.42969670039435)"/><path class="st0" d="M208.5,33.3c-10.1,0-15.8,5.9-14.4,14.4c0.5,3,2.1,3.7,2.1,3.7s0.6-4.6,0.2-5.6c-0.9-2.2,0.4-1.6,0.8-0.1&#10;&#9;&#9;&#9;c0.5,1.8-0.2,6.1-0.2,8.2c0,1.3-0.3,2.1-0.5,2.8c-0.4,1-0.6,1.8,0.2,3.7c0.6,1.5,1.8,1.9,2.7,2.3c0.8,0.4,2.3,0.7,3.1,1.8&#10;&#9;&#9;&#9;c0.3,0.4,0.4,0.8,0.5,1.2c0.2,0.6,0.3,0.8,1.1,1c1.5,0.4,2.4,0.7,4.1,0.7c1.6,0,2.7-0.1,4.2-0.7c0.8-0.3,0.9-0.4,1.1-1&#10;&#9;&#9;&#9;c0.1-0.3,0.2-0.7,0.5-1.1c0.7-1,2.4-1.5,3.5-2c1.2-0.5,2.6-1,2.9-2.2c0.5-1.8,0.4-2.7,0.2-3.9c-0.1-0.7-0.3-1.5-0.3-2.7&#10;&#9;&#9;&#9;c0-2-0.7-6.2-0.3-8c0.3-1.1,1.5-2,0.7,0.4c-0.4,1.1,0.3,5.7,0.3,5.7s1.8-1.2,2.2-4.2C224.3,39.1,218.2,33.3,208.5,33.3z&#10;&#9;&#9;&#9; M202.1,58.2c-1.1,0-2.2-0.6-2.9-1.6c-0.7-1-0.8-2-0.4-2.8c0.4-0.8,1.4-1.4,2.6-1.5l3.1-0.4c0.2,0,0.3,0,0.5,0c1,0,1.7,0.2,2,0.8&#10;&#9;&#9;&#9;c0.3,0.6,0,1.4-0.7,2.3l-1.6,1.9C204,57.7,203.1,58.2,202.1,58.2z M207.9,58c0,1.1-0.1,4.8-1,5.6c-0.1,0.1-0.2,0.2-0.4,0.2&#10;&#9;&#9;&#9;c0,0-0.1,0-0.1,0c-0.5-0.2-0.9-0.5-1-0.9c-0.4-1.5,1.6-4.1,2.3-4.9l0.2-0.2L207.9,58z M211.2,62.7c-0.1,0.5-0.4,0.8-1,1&#10;&#9;&#9;&#9;c0,0-0.1,0-0.1,0c-1.2,0-1.3-4.8-1.3-5.8l0-0.3l0.2,0.2C209.6,58.7,211.6,61.2,211.2,62.7z M217.7,56.6c-0.7,1.1-1.8,1.7-2.9,1.6&#10;&#9;&#9;&#9;c-1,0-1.9-0.5-2.6-1.4l-1.6-1.9c-0.8-0.9-1.1-1.7-0.7-2.3c0.3-0.5,1-0.8,2-0.8c0.2,0,0.3,0,0.5,0l3.1,0.4c1.3,0.1,2.2,0.7,2.6,1.5&#10;&#9;&#9;&#9;C218.5,54.6,218.3,55.6,217.7,56.6z" style="fill: rgb(0, 0, 0);" transform="matrix(4.964418411254884, 0, 0, 4.31965446472168, -895.4347759884437, -111.42969670039435)"/><path class="st0" d="M208.8,70.5l0,1.2c0,0.2-0.3,0.3-0.4,0.3l-0.2,0l-0.2,0c-0.1,0-0.4-0.1-0.4-0.3l0-1.2c0-0.2,0.1-0.3,0.3-0.3&#10;&#9;&#9;&#9;c0,0,0.1,0,0.3,0l0.1,0c0.1,0,0.2,0,0.2,0h0C208.7,70.2,208.8,70.4,208.8,70.5z" style="fill: rgb(0, 0, 0);" transform="matrix(4.964418411254884, 0, 0, 4.31965446472168, -895.4347759884437, -111.42969670039435)"/><path class="st0" d="M210.6,70.1C210.6,70.1,210.6,70.1,210.6,70.1l-0.6,0.1c-0.2,0-0.3,0.2-0.3,0.3l0,1.2c0,0.2,0.1,0.3,0.3,0.3&#10;&#9;&#9;&#9;c0,0,0,0,0,0l0.5-0.1c0.2,0,0.3-0.2,0.3-0.4l0-1.1C210.9,70.2,210.8,70.1,210.6,70.1z" style="fill: rgb(0, 0, 0);" transform="matrix(4.964418411254884, 0, 0, 4.31965446472168, -895.4347759884437, -111.42969670039435)"/><path class="st0" d="M206.4,70.1l-0.5-0.1c0,0,0,0,0,0c-0.2,0-0.3,0.1-0.3,0.3l0,1.1c0,0.2,0.1,0.3,0.3,0.4l0.5,0.1c0,0,0,0,0,0&#10;&#9;&#9;&#9;c0.2,0,0.3-0.1,0.3-0.3l0-1.2C206.7,70.3,206.5,70.2,206.4,70.1z" style="fill: rgb(0, 0, 0);" transform="matrix(4.964418411254884, 0, 0, 4.31965446472168, -895.4347759884437, -111.42969670039435)"/><path class="st0" d="M212.8,69.7C212.7,69.7,212.7,69.7,212.8,69.7l-0.6,0.2c-0.2,0-0.3,0.2-0.3,0.4l0,1.1c0,0.1,0.1,0.2,0.2,0.2&#10;&#9;&#9;&#9;c0,0,0.1,0,0.1,0c0.8-0.5,0.8-1.5,0.8-1.5C213,69.8,212.9,69.7,212.8,69.7z" style="fill: rgb(0, 0, 0);" transform="matrix(4.964418411254884, 0, 0, 4.31965446472168, -895.4347759884437, -111.42969670039435)"/><path class="st0" d="M204.3,69.8l-0.5-0.1c0,0-0.1,0-0.1,0c-0.1,0-0.2,0.1-0.2,0.2c0,0,0,1,0.8,1.5c0,0,0.1,0,0.1,0&#10;&#9;&#9;&#9;c0.1,0,0.2-0.1,0.2-0.2l0-1.1C204.6,70,204.4,69.8,204.3,69.8z" style="fill: rgb(0, 0, 0);" transform="matrix(4.964418411254884, 0, 0, 4.31965446472168, -895.4347759884437, -111.42969670039435)"/><path class="st0" d="M208,69.6h0.4c0.1,0,0.4-0.1,0.4-0.3l0-1.1c0-0.2-0.1-0.3-0.3-0.3l-0.4,0c0,0-0.4,0-0.4,0.3l0,1.1&#10;&#9;&#9;&#9;C207.6,69.4,207.9,69.6,208,69.6z" style="fill: rgb(0, 0, 0);" transform="matrix(4.964418411254884, 0, 0, 4.31965446472168, -895.4347759884437, -111.42969670039435)"/><path class="st0" d="M210,69.5L210,69.5l0.6-0.1c0.2,0,0.3-0.2,0.3-0.3l0-1c0-0.2-0.1-0.3-0.3-0.3c0,0-0.5,0-0.5,0&#10;&#9;&#9;&#9;c-0.2,0-0.3,0.2-0.3,0.3l0,1.1C209.7,69.4,209.9,69.5,210,69.5z" style="fill: rgb(0, 0, 0);" transform="matrix(4.964418411254884, 0, 0, 4.31965446472168, -895.4347759884437, -111.42969670039435)"/><path class="st0" d="M206.4,67.8l-0.5,0c-0.2,0-0.3,0.1-0.3,0.3l0,1c0,0.2,0.1,0.3,0.3,0.3l0.5,0.1l0,0c0.2,0,0.3-0.1,0.3-0.3&#10;&#9;&#9;&#9;l0-1.1C206.7,68,206.6,67.8,206.4,67.8z" style="fill: rgb(0, 0, 0);" transform="matrix(4.964418411254884, 0, 0, 4.31965446472168, -895.4347759884437, -111.42969670039435)"/><path class="st0" d="M212.1,69.1C212.1,69.1,212.1,69.1,212.1,69.1l0.6-0.2c0.2,0,0.3-0.2,0.3-0.4l0-0.8c0-0.2-0.1-0.3-0.3-0.3&#10;&#9;&#9;&#9;c0,0,0,0,0,0l-0.5,0.1c-0.2,0-0.3,0.2-0.3,0.3l0,0.9C211.8,69,212,69.1,212.1,69.1z" style="fill: rgb(0, 0, 0);" transform="matrix(4.964418411254884, 0, 0, 4.31965446472168, -895.4347759884437, -111.42969670039435)"/><path class="st0" d="M204.3,67.7l-0.5-0.1c0,0,0,0,0,0c-0.2,0-0.3,0.1-0.3,0.3l0,0.7c0,0.2,0.1,0.3,0.3,0.4l0.5,0.2c0,0,0,0,0.1,0&#10;&#9;&#9;&#9;c0.1,0,0.2-0.1,0.2-0.3l0-0.9C204.6,67.8,204.5,67.7,204.3,67.7z" style="fill: rgb(0, 0, 0);" transform="matrix(4.964418411254884, 0, 0, 4.31965446472168, -895.4347759884437, -111.42969670039435)"/><path class="st0" d="M214.2,69.2L214.2,69.2c-0.1,0-0.2,0.1-0.2,0.1c-0.1,0.1-0.1,0.1-0.1,0.2c0,0,0,0,0,0.2c0,0,0,0.2,0.1,0.2&#10;&#9;&#9;&#9;c0.1,0,0.1-0.1,0.1-0.1l0.2-0.5C214.2,69.3,214.2,69.3,214.2,69.2L214.2,69.2z" style="fill: rgb(0, 0, 0);" transform="matrix(4.964418411254884, 0, 0, 4.31965446472168, -895.4347759884437, -111.42969670039435)"/><path class="st0" d="M202.3,69L202.3,69L202.3,69L202.3,69c-0.1,0-0.1,0,0,0.3l0.2,0.6c0,0.1,0.1,0.1,0.1,0.1c0,0,0.1,0,0.1-0.1&#10;&#9;&#9;&#9;c0-0.1-0.1-0.5-0.2-0.6C202.5,69.3,202.4,69.2,202.3,69z" style="fill: rgb(0, 0, 0);" transform="matrix(4.964418411254884, 0, 0, 4.31965446472168, -895.4347759884437, -111.42969670039435)"/><path class="st0" d="M214.8,65.4c-0.3,0.1-0.5,0.4-0.6,0.9c-0.2,0.9-0.1,2.1-0.1,2.1l0,0.1l0-0.1&#10;&#9;&#9;&#9;C214.8,67.4,214.9,66.2,214.8,65.4L214.8,65.4L214.8,65.4z" style="fill: rgb(0, 0, 0);" transform="matrix(4.964418411254884, 0, 0, 4.31965446472168, -895.4347759884437, -111.42969670039435)"/><path class="st0" d="M202.3,68.1L202.3,68.1c0.1-0.1,0.1-1.2,0-1.8c-0.1-0.5-0.3-0.7-0.6-0.8l-0.1,0l0,0.1&#10;&#9;&#9;&#9;C201.7,66.2,201.8,67.1,202.3,68.1L202.3,68.1z" style="fill: rgb(0, 0, 0);" transform="matrix(4.964418411254884, 0, 0, 4.31965446472168, -895.4347759884437, -111.42969670039435)"/><path class="st0" d="M221.5,61.1c0.1-0.1,0.1-0.2,0.1-0.4c0.5-1.6,0.4-2.6,0.4-3.3l2.2-1.2c1.3-0.7,2-1.7,2.7-2.8&#10;&#9;&#9;&#9;c0.1-0.2,0.3-0.4,0.4-0.6c0.5-0.8,1.7-2,2.9-2c0.3,0,0.5,0.1,0.7,0.2c0.9,0.5,0.7,1.2,0.6,1.8c-0.1,0.5-0.3,1,0,1.5&#10;&#9;&#9;&#9;c0.3,0.5,0.7,0.7,1.2,0.9c0.7,0.3,1.3,0.6,1,1.8c-0.3,1.3-2.4,1.4-3.2,1.4c-0.2,0-0.4,0-0.6,0c-0.5,0-1-0.1-1.5-0.1&#10;&#9;&#9;&#9;c-1.1,0-1.9,0.2-2.9,0.6C225.4,59.1,221.5,61.1,221.5,61.1z" style="fill: rgb(0, 0, 0);" transform="matrix(4.964418411254884, 0, 0, 4.31965446472168, -895.4347759884437, -111.42969670039435)"/><path class="st0" d="M191.7,59c-0.9-0.5-1.7-0.6-2.9-0.6c-0.5,0-1,0-1.5,0.1c-0.2,0-0.4,0-0.6,0c-0.8,0-2.9-0.1-3.2-1.4&#10;&#9;&#9;&#9;c-0.3-1.2,0.3-1.5,1-1.8c0.5-0.2,0.9-0.4,1.2-0.9c0.3-0.5,0.1-1,0-1.5c-0.2-0.7-0.3-1.3,0.6-1.8c0.2-0.1,0.5-0.2,0.7-0.2&#10;&#9;&#9;&#9;c1.1,0,2.4,1.2,2.9,2c0.1,0.2,0.3,0.4,0.4,0.6c0.7,1.1,1.4,2.1,2.7,2.8l1.7,0.8c-0.2,0.8-0.3,1.8,0.5,3.6c0,0.1,0,0.1,0.1,0.2&#10;&#9;&#9;&#9;C195.3,60.8,191.8,59.1,191.7,59z" style="fill: rgb(0, 0, 0);" transform="matrix(4.964418411254884, 0, 0, 4.31965446472168, -895.4347759884437, -111.42969670039435)"/>




<path class="st0" d="M229.3,79.6c-1.1,0-2.4-1.2-2.9-2c-0.1-0.2-0.3-0.4-0.4-0.6c-0.7-1.1-1.4-2.1-2.7-2.8l-5.7-2.8&#10;&#9;&#9;&#9;c0.4-0.9,0.7-1.9,0.8-3c3.6,1.8,6.1,3,6.2,3.1c0.9,0.5,1.7,0.6,2.9,0.6c0.5,0,1,0,1.5-0.1c0.2,0,0.4,0,0.6,0&#10;&#9;&#9;&#9;c0.8,0,2.9,0.1,3.2,1.4c0.3,1.2-0.3,1.5-1,1.8c-0.5,0.2-0.9,0.4-1.2,0.9c-0.3,0.5-0.1,1,0,1.5c0.2,0.7,0.3,1.3-0.6,1.9&#10;&#9;&#9;&#9;C229.8,79.6,229.5,79.6,229.3,79.6L229.3,79.6z" style="fill: rgb(31, 31, 31);" transform="matrix(4.964418411254884, 0, 0, 4.31965446472168, -895.4347810717827, -108.92663065446251)"/><path class="st0" d="M187.9,79.6c-0.3,0-0.5-0.1-0.7-0.2c-0.9-0.5-0.7-1.2-0.6-1.9c0.1-0.5,0.3-1,0-1.5c-0.3-0.5-0.7-0.7-1.2-0.9&#10;&#9;&#9;&#9;c-0.7-0.3-1.3-0.6-1-1.8c0.3-1.3,2.4-1.4,3.2-1.4c0.2,0,0.4,0,0.6,0c0.5,0,1,0.1,1.5,0.1c1.1,0,2-0.2,2.9-0.6c0,0,6-3,6-3&#10;&#9;&#9;&#9;c0.2,1.2,0.4,2.1,0.8,3l-5.6,2.7c-1.3,0.7-2,1.7-2.7,2.8c-0.1,0.2-0.3,0.4-0.4,0.6C190.3,78.4,189.1,79.6,187.9,79.6z" style="fill: rgb(31, 31, 31);" transform="matrix(4.964418411254884, 0, 0, 4.31965446472168, -895.4347810717827, -108.92663065446251)"/><path class="st0" d="M208.5,75.6c-5.2,0-7.3-2.5-8-6.3c-0.1-0.7-0.2-1.3-0.2-2c-0.2-1.9,0.8-3.3,0.8-3c0,4.6,0.6,8.6,7.4,8.6&#10;&#9;&#9;&#9;c6.8,0,7.3-5.9,7.2-8.6c0-0.4,1.2,1.1,1,2.9c-0.1,0.6-0.1,1.2-0.2,1.9C216,73,213.8,75.6,208.5,75.6z" style="fill: rgb(31, 31, 31);" transform="matrix(4.964418411254884, 0, 0, 4.31965446472168, -895.4347810717827, -108.92663065446251)"/><path class="st0" d="M208.5,33.3c-10.1,0-15.8,5.9-14.4,14.4c0.5,3,2.1,3.7,2.1,3.7s0.6-4.6,0.2-5.6c-0.9-2.2,0.4-1.6,0.8-0.1&#10;&#9;&#9;&#9;c0.5,1.8-0.2,6.1-0.2,8.2c0,1.3-0.3,2.1-0.5,2.8c-0.4,1-0.6,1.8,0.2,3.7c0.6,1.5,1.8,1.9,2.7,2.3c0.8,0.4,2.3,0.7,3.1,1.8&#10;&#9;&#9;&#9;c0.3,0.4,0.4,0.8,0.5,1.2c0.2,0.6,0.3,0.8,1.1,1c1.5,0.4,2.4,0.7,4.1,0.7c1.6,0,2.7-0.1,4.2-0.7c0.8-0.3,0.9-0.4,1.1-1&#10;&#9;&#9;&#9;c0.1-0.3,0.2-0.7,0.5-1.1c0.7-1,2.4-1.5,3.5-2c1.2-0.5,2.6-1,2.9-2.2c0.5-1.8,0.4-2.7,0.2-3.9c-0.1-0.7-0.3-1.5-0.3-2.7&#10;&#9;&#9;&#9;c0-2-0.7-6.2-0.3-8c0.3-1.1,1.5-2,0.7,0.4c-0.4,1.1,0.3,5.7,0.3,5.7s1.8-1.2,2.2-4.2C224.3,39.1,218.2,33.3,208.5,33.3z&#10;&#9;&#9;&#9; M202.1,58.2c-1.1,0-2.2-0.6-2.9-1.6c-0.7-1-0.8-2-0.4-2.8c0.4-0.8,1.4-1.4,2.6-1.5l3.1-0.4c0.2,0,0.3,0,0.5,0c1,0,1.7,0.2,2,0.8&#10;&#9;&#9;&#9;c0.3,0.6,0,1.4-0.7,2.3l-1.6,1.9C204,57.7,203.1,58.2,202.1,58.2z M207.9,58c0,1.1-0.1,4.8-1,5.6c-0.1,0.1-0.2,0.2-0.4,0.2&#10;&#9;&#9;&#9;c0,0-0.1,0-0.1,0c-0.5-0.2-0.9-0.5-1-0.9c-0.4-1.5,1.6-4.1,2.3-4.9l0.2-0.2L207.9,58z M211.2,62.7c-0.1,0.5-0.4,0.8-1,1&#10;&#9;&#9;&#9;c0,0-0.1,0-0.1,0c-1.2,0-1.3-4.8-1.3-5.8l0-0.3l0.2,0.2C209.6,58.7,211.6,61.2,211.2,62.7z M217.7,56.6c-0.7,1.1-1.8,1.7-2.9,1.6&#10;&#9;&#9;&#9;c-1,0-1.9-0.5-2.6-1.4l-1.6-1.9c-0.8-0.9-1.1-1.7-0.7-2.3c0.3-0.5,1-0.8,2-0.8c0.2,0,0.3,0,0.5,0l3.1,0.4c1.3,0.1,2.2,0.7,2.6,1.5&#10;&#9;&#9;&#9;C218.5,54.6,218.3,55.6,217.7,56.6z" style="fill: rgb(31, 31, 31);" transform="matrix(4.964418411254884, 0, 0, 4.31965446472168, -895.4347810717827, -108.92663065446251)"/><path class="st0" d="M208.8,70.5l0,1.2c0,0.2-0.3,0.3-0.4,0.3l-0.2,0l-0.2,0c-0.1,0-0.4-0.1-0.4-0.3l0-1.2c0-0.2,0.1-0.3,0.3-0.3&#10;&#9;&#9;&#9;c0,0,0.1,0,0.3,0l0.1,0c0.1,0,0.2,0,0.2,0h0C208.7,70.2,208.8,70.4,208.8,70.5z" style="fill: rgb(31, 31, 31);" transform="matrix(4.964418411254884, 0, 0, 4.31965446472168, -895.4347810717827, -108.92663065446251)"/><path class="st0" d="M210.6,70.1C210.6,70.1,210.6,70.1,210.6,70.1l-0.6,0.1c-0.2,0-0.3,0.2-0.3,0.3l0,1.2c0,0.2,0.1,0.3,0.3,0.3&#10;&#9;&#9;&#9;c0,0,0,0,0,0l0.5-0.1c0.2,0,0.3-0.2,0.3-0.4l0-1.1C210.9,70.2,210.8,70.1,210.6,70.1z" style="fill: rgb(31, 31, 31);" transform="matrix(4.964418411254884, 0, 0, 4.31965446472168, -895.4347810717827, -108.92663065446251)"/><path class="st0" d="M206.4,70.1l-0.5-0.1c0,0,0,0,0,0c-0.2,0-0.3,0.1-0.3,0.3l0,1.1c0,0.2,0.1,0.3,0.3,0.4l0.5,0.1c0,0,0,0,0,0&#10;&#9;&#9;&#9;c0.2,0,0.3-0.1,0.3-0.3l0-1.2C206.7,70.3,206.5,70.2,206.4,70.1z" style="fill: rgb(31, 31, 31);" transform="matrix(4.964418411254884, 0, 0, 4.31965446472168, -895.4347810717827, -108.92663065446251)"/><path class="st0" d="M212.8,69.7C212.7,69.7,212.7,69.7,212.8,69.7l-0.6,0.2c-0.2,0-0.3,0.2-0.3,0.4l0,1.1c0,0.1,0.1,0.2,0.2,0.2&#10;&#9;&#9;&#9;c0,0,0.1,0,0.1,0c0.8-0.5,0.8-1.5,0.8-1.5C213,69.8,212.9,69.7,212.8,69.7z" style="fill: rgb(31, 31, 31);" transform="matrix(4.964418411254884, 0, 0, 4.31965446472168, -895.4347810717827, -108.92663065446251)"/><path class="st0" d="M204.3,69.8l-0.5-0.1c0,0-0.1,0-0.1,0c-0.1,0-0.2,0.1-0.2,0.2c0,0,0,1,0.8,1.5c0,0,0.1,0,0.1,0&#10;&#9;&#9;&#9;c0.1,0,0.2-0.1,0.2-0.2l0-1.1C204.6,70,204.4,69.8,204.3,69.8z" style="fill: rgb(31, 31, 31);" transform="matrix(4.964418411254884, 0, 0, 4.31965446472168, -895.4347810717827, -108.92663065446251)"/><path class="st0" d="M208,69.6h0.4c0.1,0,0.4-0.1,0.4-0.3l0-1.1c0-0.2-0.1-0.3-0.3-0.3l-0.4,0c0,0-0.4,0-0.4,0.3l0,1.1&#10;&#9;&#9;&#9;C207.6,69.4,207.9,69.6,208,69.6z" style="fill: rgb(31, 31, 31);" transform="matrix(4.964418411254884, 0, 0, 4.31965446472168, -895.4347810717827, -108.92663065446251)"/><path class="st0" d="M210,69.5L210,69.5l0.6-0.1c0.2,0,0.3-0.2,0.3-0.3l0-1c0-0.2-0.1-0.3-0.3-0.3c0,0-0.5,0-0.5,0&#10;&#9;&#9;&#9;c-0.2,0-0.3,0.2-0.3,0.3l0,1.1C209.7,69.4,209.9,69.5,210,69.5z" style="fill: rgb(31, 31, 31);" transform="matrix(4.964418411254884, 0, 0, 4.31965446472168, -895.4347810717827, -108.92663065446251)"/><path class="st0" d="M206.4,67.8l-0.5,0c-0.2,0-0.3,0.1-0.3,0.3l0,1c0,0.2,0.1,0.3,0.3,0.3l0.5,0.1l0,0c0.2,0,0.3-0.1,0.3-0.3&#10;&#9;&#9;&#9;l0-1.1C206.7,68,206.6,67.8,206.4,67.8z" style="fill: rgb(31, 31, 31);" transform="matrix(4.964418411254884, 0, 0, 4.31965446472168, -895.4347810717827, -108.92663065446251)"/><path class="st0" d="M212.1,69.1C212.1,69.1,212.1,69.1,212.1,69.1l0.6-0.2c0.2,0,0.3-0.2,0.3-0.4l0-0.8c0-0.2-0.1-0.3-0.3-0.3&#10;&#9;&#9;&#9;c0,0,0,0,0,0l-0.5,0.1c-0.2,0-0.3,0.2-0.3,0.3l0,0.9C211.8,69,212,69.1,212.1,69.1z" style="fill: rgb(31, 31, 31);" transform="matrix(4.964418411254884, 0, 0, 4.31965446472168, -895.4347810717827, -108.92663065446251)"/><path class="st0" d="M204.3,67.7l-0.5-0.1c0,0,0,0,0,0c-0.2,0-0.3,0.1-0.3,0.3l0,0.7c0,0.2,0.1,0.3,0.3,0.4l0.5,0.2c0,0,0,0,0.1,0&#10;&#9;&#9;&#9;c0.1,0,0.2-0.1,0.2-0.3l0-0.9C204.6,67.8,204.5,67.7,204.3,67.7z" style="fill: rgb(31, 31, 31);" transform="matrix(4.964418411254884, 0, 0, 4.31965446472168, -895.4347810717827, -108.92663065446251)"/><path class="st0" d="M214.2,69.2L214.2,69.2c-0.1,0-0.2,0.1-0.2,0.1c-0.1,0.1-0.1,0.1-0.1,0.2c0,0,0,0,0,0.2c0,0,0,0.2,0.1,0.2&#10;&#9;&#9;&#9;c0.1,0,0.1-0.1,0.1-0.1l0.2-0.5C214.2,69.3,214.2,69.3,214.2,69.2L214.2,69.2z" style="fill: rgb(31, 31, 31);" transform="matrix(4.964418411254884, 0, 0, 4.31965446472168, -895.4347810717827, -108.92663065446251)"/><path class="st0" d="M202.3,69L202.3,69L202.3,69L202.3,69c-0.1,0-0.1,0,0,0.3l0.2,0.6c0,0.1,0.1,0.1,0.1,0.1c0,0,0.1,0,0.1-0.1&#10;&#9;&#9;&#9;c0-0.1-0.1-0.5-0.2-0.6C202.5,69.3,202.4,69.2,202.3,69z" style="fill: rgb(31, 31, 31);" transform="matrix(4.964418411254884, 0, 0, 4.31965446472168, -895.4347810717827, -108.92663065446251)"/><path class="st0" d="M214.8,65.4c-0.3,0.1-0.5,0.4-0.6,0.9c-0.2,0.9-0.1,2.1-0.1,2.1l0,0.1l0-0.1&#10;&#9;&#9;&#9;C214.8,67.4,214.9,66.2,214.8,65.4L214.8,65.4L214.8,65.4z" style="fill: rgb(31, 31, 31);" transform="matrix(4.964418411254884, 0, 0, 4.31965446472168, -895.4347810717827, -108.92663065446251)"/><path class="st0" d="M202.3,68.1L202.3,68.1c0.1-0.1,0.1-1.2,0-1.8c-0.1-0.5-0.3-0.7-0.6-0.8l-0.1,0l0,0.1&#10;&#9;&#9;&#9;C201.7,66.2,201.8,67.1,202.3,68.1L202.3,68.1z" style="fill: rgb(31, 31, 31);" transform="matrix(4.964418411254884, 0, 0, 4.31965446472168, -895.4347810717827, -108.92663065446251)"/><path class="st0" d="M221.5,61.1c0.1-0.1,0.1-0.2,0.1-0.4c0.5-1.6,0.4-2.6,0.4-3.3l2.2-1.2c1.3-0.7,2-1.7,2.7-2.8&#10;&#9;&#9;&#9;c0.1-0.2,0.3-0.4,0.4-0.6c0.5-0.8,1.7-2,2.9-2c0.3,0,0.5,0.1,0.7,0.2c0.9,0.5,0.7,1.2,0.6,1.8c-0.1,0.5-0.3,1,0,1.5&#10;&#9;&#9;&#9;c0.3,0.5,0.7,0.7,1.2,0.9c0.7,0.3,1.3,0.6,1,1.8c-0.3,1.3-2.4,1.4-3.2,1.4c-0.2,0-0.4,0-0.6,0c-0.5,0-1-0.1-1.5-0.1&#10;&#9;&#9;&#9;c-1.1,0-1.9,0.2-2.9,0.6C225.4,59.1,221.5,61.1,221.5,61.1z" style="fill: rgb(31, 31, 31);" transform="matrix(4.964418411254884, 0, 0, 4.31965446472168, -895.4347810717827, -108.92663065446251)"/><path class="st0" d="M191.7,59c-0.9-0.5-1.7-0.6-2.9-0.6c-0.5,0-1,0-1.5,0.1c-0.2,0-0.4,0-0.6,0c-0.8,0-2.9-0.1-3.2-1.4&#10;&#9;&#9;&#9;c-0.3-1.2,0.3-1.5,1-1.8c0.5-0.2,0.9-0.4,1.2-0.9c0.3-0.5,0.1-1,0-1.5c-0.2-0.7-0.3-1.3,0.6-1.8c0.2-0.1,0.5-0.2,0.7-0.2&#10;&#9;&#9;&#9;c1.1,0,2.4,1.2,2.9,2c0.1,0.2,0.3,0.4,0.4,0.6c0.7,1.1,1.4,2.1,2.7,2.8l1.7,0.8c-0.2,0.8-0.3,1.8,0.5,3.6c0,0.1,0,0.1,0.1,0.2&#10;&#9;&#9;&#9;C195.3,60.8,191.8,59.1,191.7,59z" style="fill: rgb(31, 31, 31);" transform="matrix(4.964418411254884, 0, 0, 4.31965446472168, -895.4347810717827, -108.92663065446251)"/></svg>